<?xml version="1.0" encoding="utf-8"?>
<!-- Generator: Adobe Illustrator 25.2.3, SVG Export Plug-In . SVG Version: 6.00 Build 0)  -->
<svg version="1.1" id="图层_1" xmlns="http://www.w3.org/2000/svg" xmlns:xlink="http://www.w3.org/1999/xlink" x="0px" y="0px"
	 viewBox="0 0 129.7 49.7" style="enable-background:new 0 0 129.7 49.7;" xml:space="preserve">
<style type="text/css">
	.st0{fill:#2A2F3D;}
	.st1{fill:#F56A00;}
	.st2{fill:#F5AF7A;}
	.st3{fill:#F58D3D;}
	.st4{opacity:0.3;}
</style>
<desc>Created with Sketch.</desc>
<g id="Symbols">
	<g id="Header" transform="translate(-372.000000, -12.000000)">
		<g id="Elevation_x2F_08dp">
			<g>
				<g id="Group-4" transform="translate(372.000000, 12.000000)">
					<g id="logo" transform="translate(36.676404, 0.000000)">
					</g>
					<polygon id="Combined-Shape" class="st0" points="41.7,21.6 41.7,32 35.3,32 35.3,0 41.7,0 41.7,10.4 51.8,0 60.9,0 45.1,16 
						60.9,32 51.8,32 					"/>
					<polygon id="Combined-Shape_1_" class="st0" points="68.9,25.6 86.5,25.6 86.5,32 62.5,32 62.5,0 68.9,0 					"/>
					<polygon id="Rectangle-20" class="st0" points="89.7,12.8 92.9,12.8 92.9,32 89.7,32 					"/>
					<polygon id="Combined-Shape_2_" class="st0" points="99.4,24 99.4,28.8 109,28.8 109,32 96.2,32 96.2,20.7 105.8,20.7 
						105.8,16 96.2,16 96.2,12.8 109,12.8 109,24 					"/>
					<polygon id="Combined-Shape_3_" class="st0" points="125,12.8 125,32 112.2,32 112.2,28.8 121.8,28.8 121.8,24 112.2,24 
						112.2,20.8 121.8,20.8 121.8,16 112.2,16 112.2,12.8 					"/>
					<g id="Group-6">
						<path id="Combined-Shape_4_" class="st1" d="M29.8,23.7l3.9,8.3h-7.8l-3.9-8.4c2.3-1.8,3.7-4.5,3.7-7.6c0-5.3-4.3-9.6-9.6-9.6
							S6.4,10.7,6.4,16s4.3,9.6,9.6,9.6c1,0,1.9-0.1,2.8-0.4L22,32h-6.1C7.1,32,0,24.8,0,16S7.1,0,15.9,0s15.9,7.2,15.9,16
							C31.7,18.8,31,21.4,29.8,23.7z"/>
						<path id="Combined-Shape_5_" class="st1" d="M8.2,14.2c1-4.3,5.3-7,9.6-6c0.9,0.2,1.4,1.1,1.2,1.9c-0.2,0.9-1.1,1.4-1.9,1.2
							c-2.6-0.6-5.2,1-5.8,3.6c-0.2,0.9-1.1,1.4-1.9,1.2C8.6,15.9,8,15.1,8.2,14.2z"/>
					</g>
					<g id="Group-12" transform="translate(89.743590, 0.000000)">
						<polygon id="Rectangle-33" class="st2" points="1.6,0 12.8,0 11.2,6.4 0,6.4 						"/>
						<polygon id="Rectangle-33_1_" class="st3" points="12.8,0 24,0 22.4,6.4 11.2,6.4 						"/>
						<polygon id="Rectangle-33_2_" class="st1" points="24,0 35.3,0 33.7,6.4 22.4,6.4 						"/>
					</g>
				</g>
			</g>
		</g>
	</g>
</g>
<g class="st4">
	<path class="st0" d="M5.7,45.1H2.9V46H2v-8.7h3.7V45.1z M2.9,38.1v2.6h2v-2.6H2.9z M4.9,44.3v-2.7h-2v2.7H4.9z M12.5,39.6H11V46
		c0,0.6-0.2,0.9-0.6,1c-0.4,0.2-1.2,0.2-2.4,0.2c0-0.2-0.2-0.6-0.3-0.9c0.9,0,1.8,0,2.1,0c0.2,0,0.3-0.1,0.3-0.3v-6.4H6.3v-0.9h3.9
		v-2.3H11v2.3h1.5V39.6z M8.5,43.9c-0.4-0.7-1.2-2-1.8-2.9l0.7-0.4c0.6,0.9,1.5,2.1,1.9,2.9L8.5,43.9z"/>
	<path class="st0" d="M40.5,41.1c-0.4,1.1-0.9,2.3-1.6,3.3c0.2,1,0.6,1.7,0.9,1.7c0.2,0,0.4-0.6,0.4-1.8c0.2,0.2,0.5,0.4,0.6,0.5
		c-0.2,1.9-0.7,2.4-1.1,2.3c-0.7,0-1.2-0.7-1.5-1.9c-0.6,0.7-1.2,1.4-1.9,1.8c-0.1-0.2-0.4-0.4-0.6-0.6h-4.1v0.5h-0.8v-3.8
		c-0.2,0.2-0.4,0.5-0.6,0.7c-0.1-0.2-0.3-0.5-0.5-0.7c0.7-0.7,1.4-1.8,1.8-2.8l0.7,0.2c-0.1,0.3-0.3,0.6-0.4,0.9h1.6
		c-0.1-0.3-0.2-0.6-0.3-0.8l0.7-0.2c0.2,0.3,0.4,0.7,0.5,1h1.8v0.7h-1.9V43h1.7v0.6h-1.7v0.8h1.7V45h-1.7v0.9h1.9v0.4
		c0.7-0.5,1.3-1.2,1.9-1.9c-0.2-1.1-0.4-2.4-0.5-3.8l-1.1,0.2l-0.1-0.8l1.2-0.2c-0.1-1.1-0.1-2.2-0.1-3.4h0.8c0,1.1,0.1,2.2,0.1,3.2
		l2.4-0.3l0.1,0.8l-2.5,0.4c0.1,1.1,0.2,2.1,0.3,3c0.5-0.8,0.9-1.7,1.2-2.6L40.5,41.1z M30,39.7c0.6-0.2,1.3-0.5,2.2-0.9v-1.4h-2.1
		v-0.7h2.8v3.8h-0.8v-1c-0.7,0.3-1.4,0.6-2,0.9L30,39.7z M31.2,39.1c-0.2-0.3-0.7-0.7-1-1l0.4-0.4c0.3,0.3,0.8,0.6,1,0.9L31.2,39.1z
		 M33.4,42.2h-1.7V43h1.7V42.2z M33.4,43.6h-1.7v0.8h1.7V43.6z M31.7,45.9h1.7V45h-1.7V45.9z M33.2,39.7c0.6-0.2,1.4-0.5,2.2-0.9
		v-1.4h-2.2v-0.7h2.9v3.8h-0.8v-1.1c-0.7,0.3-1.4,0.6-2,0.9L33.2,39.7z M34.5,39c-0.2-0.3-0.7-0.7-1-1l0.4-0.4
		c0.3,0.3,0.8,0.6,1,0.9L34.5,39z M39.7,38.9c-0.2-0.5-0.7-1.3-1.2-1.9l0.6-0.3c0.5,0.6,1,1.3,1.2,1.8L39.7,38.9z"/>
	<path class="st0" d="M69,46.1v0.9H58.8V37h9.9v0.9h-9v8.2H69z M66.9,45.2c-0.6-0.7-1.5-1.7-2.6-2.7c-1,1-2.1,2-3.2,2.7
		c-0.2-0.2-0.5-0.5-0.7-0.7c1.2-0.7,2.3-1.6,3.3-2.6c-1-0.9-2-1.8-2.9-2.6l0.6-0.5c0.9,0.7,1.9,1.6,2.9,2.5c0.8-0.9,1.5-1.9,2.1-2.9
		l0.8,0.3c-0.7,1.1-1.4,2.2-2.3,3.1c1.1,1,2,1.9,2.7,2.7L66.9,45.2z"/>
	<path class="st0" d="M90.4,43.6c-1.2,0.6-2.6,1.2-3.6,1.7l-0.3-0.9c0.4-0.2,1-0.4,1.6-0.6V40h-1.4v-0.9h1.4v-2.7h0.8v2.7h1.3V40
		h-1.3v3.4l1.3-0.6L90.4,43.6z M94.3,42.7c0.6,1.8,1.6,3.2,3.2,3.9c-0.2,0.2-0.5,0.6-0.6,0.8c-1.6-0.8-2.7-2.3-3.3-4.3
		c-0.4,1.7-1.3,3.2-3.5,4.3c-0.1-0.2-0.4-0.5-0.6-0.7c2.1-1,3-2.4,3.3-4h-2.4v-0.9h2.5c0-0.4,0.1-0.9,0.1-1.3v-1.3h-2.2v-0.8H93
		v-1.9h0.9v1.9h2.7v3.5h0.8v0.9H94.3z M93.8,40.5c0,0.4,0,0.9,0,1.3h1.9v-2.6h-1.8V40.5z"/>
	<path class="st0" d="M124.3,46.2c0.5,0,0.6-0.3,0.6-2.1c0.2,0.2,0.6,0.3,0.8,0.4c-0.1,2-0.3,2.6-1.4,2.6h-1.7
		c-1.1,0-1.4-0.3-1.4-1.3v-4.3H119c-0.2,2.6-0.8,4.7-3.6,5.8c-0.1-0.2-0.4-0.5-0.6-0.7c2.6-1,3-2.8,3.2-5.1h-3v-0.9h10.5v0.9h-3.4
		v4.3c0,0.4,0.1,0.5,0.6,0.5H124.3z M124.5,38.1h-8.4v-0.9h8.4V38.1z"/>
</g>
</svg>
